{
  "accessors": [
    {
      "bufferView": 2,
      "componentType": 5126,
      "count": 2668,
      "max": [
        0.08932693302631378,
        0.034892547875642776,
        1.412062644958496
      ],
      "min": [
        -0.08661481738090515,
        -0.08333965390920639,
        1.129652976989746
      ],
      "type": "VEC3"
    },
    {
      "bufferView": 2,
      "byteOffset": 32016,
      "componentType": 5126,
      "count": 2668,
      "max": [
        0.9992480874061584,
        0.9980255961418152,
        0.9997333884239197
      ],
      "min": [
        -0.9991633296012878,
        -0.9994906783103943,
        -0.9998266696929932
      ],
      "type": "VEC3"
    },
    {
      "bufferView": 1,
      "componentType": 5126,
      "count": 2668,
      "max": [
        0.9900264739990234,
        0.9930568933486938
      ],
      "min": [
        0.009748686105012894,
        0.00834984052926302
      ],
      "type": "VEC2"
    },
    {
      "bufferView": 0,
      "componentType": 5125,
      "count": 12279,
      "type": "SCALAR"
    },
    {
      "bufferView": 2,
      "byteOffset": 64032,
      "componentType": 5126,
      "count": 3116,
      "max": [
        0.09032279998064041,
        0.03579169884324074,
        1.4130539894104004
      ],
      "min": [
        -0.08761009573936462,
        -0.08433566987514496,
        1.1290991306304932
      ],
      "type": "VEC3"
    },
    {
      "bufferView": 2,
      "byteOffset": 101424,
      "componentType": 5126,
      "count": 3116,
      "max": [
        0.9993820786476135,
        0.9994832873344421,
        0.9998854994773865
      ],
      "min": [
        -0.9992404580116272,
        -0.9994904398918152,
        -0.9997402429580688
      ],
      "type": "VEC3"
    },
    {
      "bufferView": 1,
      "byteOffset": 21344,
      "componentType": 5126,
      "count": 3116,
      "max": [
        0.9900264739990234,
        0.9930568933486938
      ],
      "min": [
        0.009748686105012894,
        0.00834984052926302
      ],
      "type": "VEC2"
    },
    {
      "bufferView": 0,
      "byteOffset": 49116,
      "componentType": 5125,
      "count": 14583,
      "type": "SCALAR"
    },
    {
      "bufferView": 2,
      "byteOffset": 138816,
      "componentType": 5126,
      "count": 302,
      "max": [
        0.10029347240924835,
        0.11285554617643356,
        0.6431933641433716
      ],
      "min": [
        0.08250206708908081,
        0.07226129621267319,
        0.6161611080169678
      ],
      "type": "VEC3"
    },
    {
      "bufferView": 2,
      "byteOffset": 142440,
      "componentType": 5126,
      "count": 302,
      "max": [
        0.9937175512313843,
        0.9419044852256775,
        0.9822732210159302
      ],
      "min": [
        -0.9930711388587952,
        -0.9539557695388794,
        -0.9851282835006714
      ],
      "type": "VEC3"
    },
    {
      "bufferView": 1,
      "byteOffset": 46272,
      "componentType": 5126,
      "count": 302,
      "max": [
        1.000000238418579,
        1.0000001192092896
      ],
      "min": [
        0.0,
        0.0
      ],
      "type": "VEC2"
    },
    {
      "bufferView": 0,
      "byteOffset": 107448,
      "componentType": 5125,
      "count": 1440,
      "type": "SCALAR"
    },
    {
      "bufferView": 2,
      "byteOffset": 146064,
      "componentType": 5126,
      "count": 302,
      "max": [
        0.10058925300836563,
        0.11312518268823624,
        0.6434838771820068
      ],
      "min": [
        0.08221053332090378,
        0.07197511196136475,
        0.6158713102340698
      ],
      "type": "VEC3"
    },
    {
      "bufferView": 2,
      "byteOffset": 149688,
      "componentType": 5126,
      "count": 302,
      "max": [
        0.9891166090965271,
        0.9546476006507874,
        0.9904472827911377
      ],
      "min": [
        -0.9906876087188721,
        -0.9508946537971497,
        -0.9786196947097778
      ],
      "type": "VEC3"
    },
    {
      "bufferView": 1,
      "byteOffset": 48688,
      "componentType": 5126,
      "count": 302,
      "max": [
        1.000000238418579,
        1.0000001192092896
      ],
      "min": [
        0.0,
        0.0
      ],
      "type": "VEC2"
    },
    {
      "bufferView": 0,
      "byteOffset": 113208,
      "componentType": 5125,
      "count": 1440,
      "type": "SCALAR"
    },
    {
      "bufferView": 2,
      "byteOffset": 153312,
      "componentType": 5126,
      "count": 1344,
      "max": [
        0.09036672115325928,
        0.1405852735042572,
        1.4149266481399536
      ],
      "min": [
        -0.09042806923389435,
        0.014872430823743343,
        1.1250752210617065
      ],
      "type": "VEC3"
    },
    {
      "bufferView": 2,
      "byteOffset": 169440,
      "componentType": 5126,
      "count": 1344,
      "max": [
        0.9998345971107483,
        0.9999760389328003,
        0.9998579621315002
      ],
      "min": [
        -0.999873697757721,
        -0.9995072484016418,
        -0.9945857524871826
      ],
      "type": "VEC3"
    },
    {
      "bufferView": 1,
      "byteOffset": 51104,
      "componentType": 5126,
      "count": 1344,
      "max": [
        0.9850202202796936,
        0.45264968276023865
      ],
      "min": [
        0.03630243241786957,
        0.017409488558769226
      ],
      "type": "VEC2"
    },
    {
      "bufferView": 0,
      "byteOffset": 118968,
      "componentType": 5125,
      "count": 6336,
      "type": "SCALAR"
    },
    {
      "bufferView": 2,
      "byteOffset": 185568,
      "componentType": 5126,
      "count": 1568,
      "max": [
        0.09136655926704407,
        0.1414366066455841,
        1.4159258604049683
      ],
      "min": [
        -0.09142706543207169,
        0.014051355421543121,
        1.1245591640472412
      ],
      "type": "VEC3"
    },
    {
      "bufferView": 2,
      "byteOffset": 204384,
      "componentType": 5126,
      "count": 1568,
      "max": [
        0.9998286962509155,
        0.9995145201683044,
        0.9998579621315002
      ],
      "min": [
        -0.9999915957450867,
        -0.9999762773513794,
        -0.9993007779121399
      ],
      "type": "VEC3"
    },
    {
      "bufferView": 1,
      "byteOffset": 61856,
      "componentType": 5126,
      "count": 1568,
      "max": [
        0.9850202202796936,
        0.45264968276023865
      ],
      "min": [
        0.03630243241786957,
        0.017409488558769226
      ],
      "type": "VEC2"
    },
    {
      "bufferView": 0,
      "byteOffset": 144312,
      "componentType": 5125,
      "count": 7488,
      "type": "SCALAR"
    },
    {
      "bufferView": 2,
      "byteOffset": 223200,
      "componentType": 5126,
      "count": 1254,
      "max": [
        0.1506151556968689,
        0.2517310380935669,
        1.423842430114746
      ],
      "min": [
        -0.15407496690750122,
        -0.020865071564912796,
        0.8847033381462097
      ],
      "type": "VEC3"
    },
    {
      "bufferView": 2,
      "byteOffset": 238248,
      "componentType": 5126,
      "count": 1254,
      "max": [
        0.9987891912460327,
        0.9973326325416565,
        0.9982562065124512
      ],
      "min": [
        -0.9988589882850647,
        -0.9968103766441345,
        -0.9988742470741272
      ],
      "type": "VEC3"
    },
    {
      "bufferView": 1,
      "byteOffset": 74400,
      "componentType": 5126,
      "count": 1254,
      "max": [
        0.9765918254852295,
        0.9955535531044006
      ],
      "min": [
        0.007745477370917797,
        0.01587221771478653
      ],
      "type": "VEC2"
    },
    {
      "bufferView": 0,
      "byteOffset": 174264,
      "componentType": 5125,
      "count": 5976,
      "type": "SCALAR"
    },
    {
      "bufferView": 2,
      "byteOffset": 253296,
      "componentType": 5126,
      "count": 1338,
      "max": [
        0.15147459506988525,
        0.25272834300994873,
        1.42482328414917
      ],
      "min": [
        -0.15498065948486328,
        -0.02173205092549324,
        0.883903980255127
      ],
      "type": "VEC3"
    },
    {
      "bufferView": 2,
      "byteOffset": 269352,
      "componentType": 5126,
      "count": 1338,
      "max": [
        0.9990823864936829,
        0.9971418380737305,
        0.999512791633606
      ],
      "min": [
        -0.9990696907043457,
        -0.9973500967025757,
        -0.9980602860450745
      ],
      "type": "VEC3"
    },
    {
      "bufferView": 1,
      "byteOffset": 84432,
      "componentType": 5126,
      "count": 1338,
      "max": [
        0.9765918254852295,
        0.9955535531044006
      ],
      "min": [
        0.007745477370917797,
        0.01587221771478653
      ],
      "type": "VEC2"
    },
    {
      "bufferView": 0,
      "byteOffset": 198168,
      "componentType": 5125,
      "count": 6408,
      "type": "SCALAR"
    },
    {
      "bufferView": 2,
      "byteOffset": 285408,
      "componentType": 5126,
      "count": 418,
      "max": [
        0.007638305425643921,
        0.18176628649234772,
        0.6425032615661621
      ],
      "min": [
        -0.044855982065200806,
        0.16186590492725372,
        0.5989722609519958
      ],
      "type": "VEC3"
    },
    {
      "bufferView": 2,
      "byteOffset": 290424,
      "componentType": 5126,
      "count": 418,
      "max": [
        0.9955090284347534,
        0.999535858631134,
        0.9971032738685608
      ],
      "min": [
        -0.9987890124320984,
        -0.9996430277824402,
        -0.9973479509353638
      ],
      "type": "VEC3"
    },
    {
      "bufferView": 1,
      "byteOffset": 95136,
      "componentType": 5126,
      "count": 418,
      "max": [
        1.000000238418579,
        1.0000001192092896
      ],
      "min": [
        0.0,
        0.0
      ],
      "type": "VEC2"
    },
    {
      "bufferView": 0,
      "byteOffset": 223800,
      "componentType": 5125,
      "count": 2184,
      "type": "SCALAR"
    },
    {
      "bufferView": 2,
      "byteOffset": 295440,
      "componentType": 5126,
      "count": 418,
      "max": [
        0.007918118499219418,
        0.1820661425590515,
        0.642792820930481
      ],
      "min": [
        -0.0451422855257988,
        0.16157715022563934,
        0.5986730456352234
      ],
      "type": "VEC3"
    },
    {
      "bufferView": 2,
      "byteOffset": 300456,
      "componentType": 5126,
      "count": 418,
      "max": [
        0.9988464117050171,
        0.9996843934059143,
        0.9973686933517456
      ],
      "min": [
        -0.9951691627502441,
        -0.9993619918823242,
        -0.9971355199813843
      ],
      "type": "VEC3"
    },
    {
      "bufferView": 1,
      "byteOffset": 98480,
      "componentType": 5126,
      "count": 418,
      "max": [
        1.000000238418579,
        1.0000001192092896
      ],
      "min": [
        0.0,
        0.0
      ],
      "type": "VEC2"
    },
    {
      "bufferView": 0,
      "byteOffset": 232536,
      "componentType": 5125,
      "count": 2184,
      "type": "SCALAR"
    },
    {
      "bufferView": 2,
      "byteOffset": 305472,
      "componentType": 5126,
      "count": 753,
      "max": [
        0.0733346939086914,
        0.15558934211730957,
        0.7105668187141418
      ],
      "min": [
        -0.0871686339378357,
        -0.00990644097328186,
        0.5379026532173157
      ],
      "type": "VEC3"
    },
    {
      "bufferView": 2,
      "byteOffset": 314508,
      "componentType": 5126,
      "count": 753,
      "max": [
        0.6878100037574768,
        0.9974645972251892,
        0.9992567896842957
      ],
      "min": [
        -0.9963181018829346,
        -0.958138644695282,
        -0.6940070986747742
      ],
      "type": "VEC3"
    },
    {
      "bufferView": 1,
      "byteOffset": 101824,
      "componentType": 5126,
      "count": 753,
      "max": [
        0.969601035118103,
        0.2614675462245941
      ],
      "min": [
        0.7840672731399536,
        0.07551761716604233
      ],
      "type": "VEC2"
    },
    {
      "bufferView": 0,
      "byteOffset": 241272,
      "componentType": 5125,
      "count": 2976,
      "type": "SCALAR"
    },
    {
      "bufferView": 2,
      "byteOffset": 323544,
      "componentType": 5126,
      "count": 4083,
      "max": [
        0.4078787863254547,
        0.11657228320837021,
        0.17688323557376862
      ],
      "min": [
        -0.3873746395111084,
        -0.36394768953323364,
        -0.016023535281419754
      ],
      "type": "VEC3"
    },
    {
      "bufferView": 2,
      "byteOffset": 372540,
      "componentType": 5126,
      "count": 4083,
      "max": [
        0.9994545578956604,
        0.9999944567680359,
        0.9997337460517883
      ],
      "min": [
        -0.9936755299568176,
        -0.9999024271965027,
        -0.9998682737350464
      ],
      "type": "VEC3"
    },
    {
      "bufferView": 1,
      "byteOffset": 107848,
      "componentType": 5126,
      "count": 4083,
      "max": [
        0.9894733428955078,
        0.9745909571647644
      ],
      "min": [
        0.014369994401931763,
        0.005364179611206055
      ],
      "type": "VEC2"
    },
    {
      "bufferView": 0,
      "byteOffset": 253176,
      "componentType": 5125,
      "count": 16644,
      "type": "SCALAR"
    },
    {
      "bufferView": 2,
      "byteOffset": 421536,
      "componentType": 5126,
      "count": 4121,
      "max": [
        0.40886667370796204,
        0.1175679862499237,
        0.17719119787216187
      ],
      "min": [
        -0.38836830854415894,
        -0.3649425208568573,
        -0.017020968720316887
      ],
      "type": "VEC3"
    },
    {
      "bufferView": 2,
      "byteOffset": 470988,
      "componentType": 5126,
      "count": 4121,
      "max": [
        0.994509756565094,
        0.9999014139175415,
        0.9998661279678345
      ],
      "min": [
        -0.9994432926177979,
        -0.999994158744812,
        -0.9997310638427734
      ],
      "type": "VEC3"
    },
    {
      "bufferView": 1,
      "byteOffset": 140512,
      "componentType": 5126,
      "count": 4121,
      "max": [
        0.9894733428955078,
        0.9745909571647644
      ],
      "min": [
        0.014369994401931763,
        0.005364179611206055
      ],
      "type": "VEC2"
    },
    {
      "bufferView": 0,
      "byteOffset": 319752,
      "componentType": 5125,
      "count": 16860,
      "type": "SCALAR"
    },
    {
      "bufferView": 2,
      "byteOffset": 520440,
      "componentType": 5126,
      "count": 51,
      "max": [
        0.017313431948423386,
        0.1135668233036995,
        0.5242594480514526
      ],
      "min": [
        -0.045950986444950104,
        0.047602470964193344,
        0.4680957794189453
      ],
      "type": "VEC3"
    },
    {
      "bufferView": 2,
      "byteOffset": 521052,
      "componentType": 5126,
      "count": 51,
      "max": [
        0.9443530440330505,
        0.9970744848251343,
        0.9650420546531677
      ],
      "min": [
        -0.9893482327461243,
        -0.9713608622550964,
        -0.8281974792480469
      ],
      "type": "VEC3"
    },
    {
      "bufferView": 1,
      "byteOffset": 173480,
      "componentType": 5126,
      "count": 51,
      "max": [
        0.5670033097267151,
        0.6845549941062927
      ],
      "min": [
        0.5425528287887573,
        0.6485333442687988
      ],
      "type": "VEC2"
    },
    {
      "bufferView": 0,
      "byteOffset": 387192,
      "componentType": 5125,
      "count": 192,
      "type": "SCALAR"
    },
    {
      "bufferView": 2,
      "byteOffset": 521664,
      "componentType": 5126,
      "count": 90,
      "max": [
        0.01777474209666252,
        0.11406182497739792,
        0.5242594480514526
      ],
      "min": [
        -0.046445224434137344,
        0.04714754596352577,
        0.4680957794189453
      ],
      "type": "VEC3"
    },
    {
      "bufferView": 2,
      "byteOffset": 522744,
      "componentType": 5126,
      "count": 90,
      "max": [
        0.9893345236778259,
        0.9713504314422607,
        0.999404788017273
      ],
      "min": [
        -0.9662491083145142,
        -0.9970923662185669,
        -0.8281974792480469
      ],
      "type": "VEC3"
    },
    {
      "bufferView": 1,
      "byteOffset": 173888,
      "componentType": 5126,
      "count": 90,
      "max": [
        0.5670033097267151,
        0.6845549941062927
      ],
      "min": [
        0.5425528287887573,
        0.6485333442687988
      ],
      "type": "VEC2"
    },
    {
      "bufferView": 0,
      "byteOffset": 387960,
      "componentType": 5125,
      "count": 408,
      "type": "SCALAR"
    },
    {
      "bufferView": 2,
      "byteOffset": 523824,
      "componentType": 5126,
      "count": 1108,
      "max": [
        0.1181584969162941,
        0.12260477244853973,
        0.4089302122592926
      ],
      "min": [
        -0.10076433420181274,
        -0.0682714655995369,
        -0.00792917050421238
      ],
      "type": "VEC3"
    },
    {
      "bufferView": 2,
      "byteOffset": 537120,
      "componentType": 5126,
      "count": 1108,
      "max": [
        0.9976009130477905,
        0.9995445609092712,
        0.89510178565979
      ],
      "min": [
        -0.999114990234375,
        -0.9992096424102783,
        -0.9953909516334534
      ],
      "type": "VEC3"
    },
    {
      "bufferView": 1,
      "byteOffset": 174608,
      "componentType": 5126,
      "count": 1108,
      "max": [
        0.9502308964729309,
        0.808269202709198
      ],
      "min": [
        0.005968642421066761,
        0.09260191768407822
      ],
      "type": "VEC2"
    },
    {
      "bufferView": 0,
      "byteOffset": 389592,
      "componentType": 5125,
      "count": 3876,
      "type": "SCALAR"
    },
    {
      "bufferView": 2,
      "byteOffset": 550416,
      "componentType": 5126,
      "count": 1238,
      "max": [
        0.11914459615945816,
        0.12359821051359177,
        0.40953725576400757
      ],
      "min": [
        -0.10159093886613846,
        -0.06926673650741577,
        -0.008546045050024986
      ],
      "type": "VEC3"
    },
    {
      "bufferView": 2,
      "byteOffset": 565272,
      "componentType": 5126,
      "count": 1238,
      "max": [
        0.9990183115005493,
        0.9992034435272217,
        0.9990758299827576
      ],
      "min": [
        -0.999114990234375,
        -0.999535322189331,
        -0.9925426840782166
      ],
      "type": "VEC3"
    },
    {
      "bufferView": 1,
      "byteOffset": 183472,
      "componentType": 5126,
      "count": 1238,
      "max": [
        0.9502308964729309,
        0.808269202709198
      ],
      "min": [
        0.005968642421066761,
        0.09260191768407822
      ],
      "type": "VEC2"
    },
    {
      "bufferView": 0,
      "byteOffset": 405096,
      "componentType": 5125,
      "count": 4572,
      "type": "SCALAR"
    },
    {
      "bufferView": 2,
      "byteOffset": 580128,
      "componentType": 5126,
      "count": 718,
      "max": [
        0.1489778757095337,
        0.0568990595638752,
        1.5806723833084106
      ],
      "min": [
        -0.14752458035945892,
        -0.16792725026607513,
        1.3288112878799438
      ],
      "type": "VEC3"
    },
    {
      "bufferView": 2,
      "byteOffset": 588744,
      "componentType": 5126,
      "count": 718,
      "max": [
        0.9996019601821899,
        0.9942429661750793,
        0.9991527795791626
      ],
      "min": [
        -0.9998420476913452,
        -0.9931649565696716,
        -0.9990396499633789
      ],
      "type": "VEC3"
    },
    {
      "bufferView": 1,
      "byteOffset": 193376,
      "componentType": 5126,
      "count": 718,
      "max": [
        0.9900240302085876,
        0.9788933396339417
      ],
      "min": [
        0.023603741079568863,
        0.05030776187777519
      ],
      "type": "VEC2"
    },
    {
      "bufferView": 0,
      "byteOffset": 423384,
      "componentType": 5125,
      "count": 2904,
      "type": "SCALAR"
    },
    {
      "bufferView": 2,
      "byteOffset": 597360,
      "componentType": 5126,
      "count": 718,
      "max": [
        0.1497974544763565,
        0.05773277208209038,
        1.5815508365631104
      ],
      "min": [
        -0.14850832521915436,
        -0.16879461705684662,
        1.327888011932373
      ],
      "type": "VEC3"
    },
    {
      "bufferView": 2,
      "byteOffset": 605976,
      "componentType": 5126,
      "count": 718,
      "max": [
        0.9997619390487671,
        0.9941380620002747,
        0.9992614984512329
      ],
      "min": [
        -0.9988670945167542,
        -0.9944673180580139,
        -0.9996066093444824
      ],
      "type": "VEC3"
    },
    {
      "bufferView": 1,
      "byteOffset": 199120,
      "componentType": 5126,
      "count": 718,
      "max": [
        0.9900240302085876,
        0.9788933396339417
      ],
      "min": [
        0.023603741079568863,
        0.05030776187777519
      ],
      "type": "VEC2"
    },
    {
      "bufferView": 0,
      "byteOffset": 435000,
      "componentType": 5125,
      "count": 2904,
      "type": "SCALAR"
    },
    {
      "bufferView": 2,
      "byteOffset": 614592,
      "componentType": 5126,
      "count": 381,
      "max": [
        0.020912310108542442,
        0.07575619965791702,
        0.5029454827308655
      ],
      "min": [
        -0.015342555940151215,
        0.046116188168525696,
        0.4794764816761017
      ],
      "type": "VEC3"
    },
    {
      "bufferView": 2,
      "byteOffset": 619164,
      "componentType": 5126,
      "count": 381,
      "max": [
        0.9954546689987183,
        0.997032105922699,
        0.9979152083396912
      ],
      "min": [
        -0.9943811297416687,
        -0.9984164834022522,
        -0.923358142375946
      ],
      "type": "VEC3"
    },
    {
      "bufferView": 1,
      "byteOffset": 204864,
      "componentType": 5126,
      "count": 381,
      "max": [
        0.9904160499572754,
        0.3255065381526947
      ],
      "min": [
        0.020972127094864845,
        0.01835395209491253
      ],
      "type": "VEC2"
    },
    {
      "bufferView": 0,
      "byteOffset": 446616,
      "componentType": 5125,
      "count": 1536,
      "type": "SCALAR"
    },
    {
      "bufferView": 2,
      "byteOffset": 623736,
      "componentType": 5126,
      "count": 381,
      "max": [
        0.021410036832094193,
        0.07623619586229324,
        0.5034095644950867
      ],
      "min": [
        -0.015839746221899986,
        0.04563462734222412,
        0.4790688455104828
      ],
      "type": "VEC3"
    },
    {
      "bufferView": 2,
      "byteOffset": 628308,
      "componentType": 5126,
      "count": 381,
      "max": [
        0.9987384080886841,
        0.994571328163147,
        0.927344799041748
      ],
      "min": [
        -0.9977792501449585,
        -0.9912680387496948,
        -0.9987847208976746
      ],
      "type": "VEC3"
    },
    {
      "bufferView": 1,
      "byteOffset": 207912,
      "componentType": 5126,
      "count": 381,
      "max": [
        0.9904160499572754,
        0.3255065381526947
      ],
      "min": [
        0.020972127094864845,
        0.01835395209491253
      ],
      "type": "VEC2"
    },
    {
      "bufferView": 0,
      "byteOffset": 452760,
      "componentType": 5125,
      "count": 1536,
      "type": "SCALAR"
    },
    {
      "bufferView": 2,
      "byteOffset": 632880,
      "componentType": 5126,
      "count": 442,
      "max": [
        0.2340620905160904,
        0.0247748252004385,
        0.16560477018356323
      ],
      "min": [
        -0.11979815363883972,
        -0.12909060716629028,
        0.10410650074481964
      ],
      "type": "VEC3"
    },
    {
      "bufferView": 2,
      "byteOffset": 638184,
      "componentType": 5126,
      "count": 442,
      "max": [
        0.981849730014801,
        0.9324808716773987,
        0.8689183592796326
      ],
      "min": [
        -0.9999014139175415,
        -0.9304454326629639,
        -0.8242790102958679
      ],
      "type": "VEC3"
    },
    {
      "bufferView": 1,
      "byteOffset": 210960,
      "componentType": 5126,
      "count": 442,
      "max": [
        0.10053008794784546,
        0.3404112756252289
      ],
      "min": [
        0.017606006935238838,
        0.2774675190448761
      ],
      "type": "VEC2"
    },
    {
      "bufferView": 0,
      "byteOffset": 458904,
      "componentType": 5125,
      "count": 2016,
      "type": "SCALAR"
    },
    {
      "bufferView": 2,
      "byteOffset": 643488,
      "componentType": 5126,
      "count": 340,
      "max": [
        0.19517864286899567,
        -0.006350587122142315,
        0.13894838094711304
      ],
      "min": [
        -0.08042584359645844,
        -0.10329477488994598,
        0.1171165257692337
      ],
      "type": "VEC3"
    },
    {
      "bufferView": 2,
      "byteOffset": 647568,
      "componentType": 5126,
      "count": 340,
      "max": [
        0.9787151217460632,
        0.9957560896873474,
        0.999961256980896
      ],
      "min": [
        -0.9785794615745544,
        -0.9957820773124695,
        -0.9999440908432007
      ],
      "type": "VEC3"
    },
    {
      "bufferView": 1,
      "byteOffset": 214496,
      "componentType": 5126,
      "count": 340,
      "max": [
        0.0,
        0.0
      ],
      "min": [
        0.0,
        0.0
      ],
      "type": "VEC2"
    },
    {
      "bufferView": 0,
      "byteOffset": 466968,
      "componentType": 5125,
      "count": 2016,
      "type": "SCALAR"
    },
    {
      "bufferView": 2,
      "byteOffset": 651648,
      "componentType": 5126,
      "count": 782,
      "max": [
        0.23432116210460663,
        0.025129584595561028,
        0.16601309180259705
      ],
      "min": [
        -0.11995097249746323,
        -0.12948770821094513,
        0.10370427370071411
      ],
      "type": "VEC3"
    },
    {
      "bufferView": 2,
      "byteOffset": 661032,
      "componentType": 5126,
      "count": 782,
      "max": [
        0.9861348867416382,
        0.9986370205879211,
        0.9977349042892456
      ],
      "min": [
        -0.9987666010856628,
        -0.9984607696533203,
        -0.9977200627326965
      ],
      "type": "VEC3"
    },
    {
      "bufferView": 1,
      "byteOffset": 217216,
      "componentType": 5126,
      "count": 782,
      "max": [
        0.10053008794784546,
        0.3404112756252289
      ],
      "min": [
        0.0,
        0.0
      ],
      "type": "VEC2"
    },
    {
      "bufferView": 0,
      "byteOffset": 475032,
      "componentType": 5125,
      "count": 4032,
      "type": "SCALAR"
    },
    {
      "bufferView": 2,
      "byteOffset": 670416,
      "componentType": 5126,
      "count": 167,
      "max": [
        0.011618797667324543,
        0.16182631254196167,
        0.17174452543258667
      ],
      "min": [
        -0.04353179410099983,
        0.1068655326962471,
        0.11720079183578491
      ],
      "type": "VEC3"
    },
    {
      "bufferView": 2,
      "byteOffset": 672420,
      "componentType": 5126,
      "count": 167,
      "max": [
        0.9932963252067566,
        0.9997367858886719,
        0.9996548295021057
      ],
      "min": [
        -0.9934877753257751,
        -0.9990306496620178,
        -0.9999468326568604
      ],
      "type": "VEC3"
    },
    {
      "bufferView": 1,
      "byteOffset": 223472,
      "componentType": 5126,
      "count": 167,
      "max": [
        1.0,
        1.0
      ],
      "min": [
        0.0,
        0.0
      ],
      "type": "VEC2"
    },
    {
      "bufferView": 0,
      "byteOffset": 491160,
      "componentType": 5125,
      "count": 792,
      "type": "SCALAR"
    },
    {
      "bufferView": 2,
      "byteOffset": 674424,
      "componentType": 5126,
      "count": 167,
      "max": [
        0.012612094171345234,
        0.1628260463476181,
        0.17274418473243713
      ],
      "min": [
        -0.044525280594825745,
        0.10586649924516678,
        0.11620084196329117
      ],
      "type": "VEC3"
    },
    {
      "bufferView": 2,
      "byteOffset": 676428,
      "componentType": 5126,
      "count": 167,
      "max": [
        0.9935116171836853,
        0.9990568161010742,
        0.9999464750289917
      ],
      "min": [
        -0.9933229684829712,
        -0.999748170375824,
        -0.9996609091758728
      ],
      "type": "VEC3"
    },
    {
      "bufferView": 1,
      "byteOffset": 224808,
      "componentType": 5126,
      "count": 167,
      "max": [
        1.0,
        1.0
      ],
      "min": [
        0.0,
        0.0
      ],
      "type": "VEC2"
    },
    {
      "bufferView": 0,
      "byteOffset": 494328,
      "componentType": 5125,
      "count": 792,
      "type": "SCALAR"
    },
    {
      "bufferView": 2,
      "byteOffset": 678432,
      "componentType": 5126,
      "count": 780,
      "max": [
        0.4275197386741638,
        0.10220340639352798,
        0.052666932344436646
      ],
      "min": [
        -0.40637433528900146,
        -0.05643901228904724,
        -0.010377082042396069
      ],
      "type": "VEC3"
    },
    {
      "bufferView": 2,
      "byteOffset": 687792,
      "componentType": 5126,
      "count": 780,
      "max": [
        0.9862166047096252,
        0.9897983074188232,
        0.9999505281448364
      ],
      "min": [
        -0.9950670599937439,
        -0.9877910614013672,
        -0.9973807334899902
      ],
      "type": "VEC3"
    },
    {
      "bufferView": 1,
      "byteOffset": 226144,
      "componentType": 5126,
      "count": 780,
      "max": [
        0.6872439980506897,
        0.17793047428131104
      ],
      "min": [
        0.36094769835472107,
        0.039645954966545105
      ],
      "type": "VEC2"
    },
    {
      "bufferView": 0,
      "byteOffset": 497496,
      "componentType": 5125,
      "count": 3552,
      "type": "SCALAR"
    },
    {
      "bufferView": 2,
      "byteOffset": 697152,
      "componentType": 5126,
      "count": 820,
      "max": [
        0.4284995198249817,
        0.10314232856035233,
        0.05366615206003189
      ],
      "min": [
        -0.4073573350906372,
        -0.057426802814006805,
        -0.011374463327229023
      ],
      "type": "VEC3"
    },
    {
      "bufferView": 2,
      "byteOffset": 706992,
      "componentType": 5126,
      "count": 820,
      "max": [
        0.9956409931182861,
        0.9880616664886475,
        0.9973191618919373
      ],
      "min": [
        -0.9870731830596924,
        -0.9896615743637085,
        -0.9999372363090515
      ],
      "type": "VEC3"
    },
    {
      "bufferView": 1,
      "byteOffset": 232384,
      "componentType": 5126,
      "count": 820,
      "max": [
        0.6872439980506897,
        0.17793047428131104
      ],
      "min": [
        0.36094769835472107,
        0.039645954966545105
      ],
      "type": "VEC2"
    },
    {
      "bufferView": 0,
      "byteOffset": 511704,
      "componentType": 5125,
      "count": 3792,
      "type": "SCALAR"
    },
    {
      "bufferView": 2,
      "byteOffset": 716832,
      "componentType": 5126,
      "count": 16050,
      "max": [
        0.4074428379535675,
        0.15987667441368103,
        0.7075405716896057
      ],
      "min": [
        -0.38694095611572266,
        -0.345403254032135,
        -0.014388849027454853
      ],
      "type": "VEC3"
    },
    {
      "bufferView": 2,
      "byteOffset": 909432,
      "componentType": 5126,
      "count": 16050,
      "max": [
        0.9999205470085144,
        0.9998769760131836,
        0.9997104406356812
      ],
      "min": [
        -0.9999865293502808,
        -0.9996356964111328,
        -0.9999496340751648
      ],
      "type": "VEC3"
    },
    {
      "bufferView": 1,
      "byteOffset": 238944,
      "componentType": 5126,
      "count": 16050,
      "max": [
        0.9951432347297668,
        0.9969180822372437
      ],
      "min": [
        0.0,
        0.0
      ],
      "type": "VEC2"
    },
    {
      "bufferView": 0,
      "byteOffset": 526872,
      "componentType": 5125,
      "count": 63228,
      "type": "SCALAR"
    },
    {
      "bufferView": 2,
      "byteOffset": 1102032,
      "componentType": 5126,
      "count": 512,
      "max": [
        0.07665083557367325,
        0.10592027008533478,
        0.6090384721755981
      ],
      "min": [
        0.016899358481168747,
        0.0009904305916279554,
        0.5206328630447388
      ],
      "type": "VEC3"
    },
    {
      "bufferView": 2,
      "byteOffset": 1108176,
      "componentType": 5126,
      "count": 512,
      "max": [
        0.999424397945404,
        0.9923014044761658,
        0.9997831583023071
      ],
      "min": [
        -0.999324381351471,
        -0.9819262623786926,
        -0.9995810389518738
      ],
      "type": "VEC3"
    },
    {
      "bufferView": 1,
      "byteOffset": 367344,
      "componentType": 5126,
      "count": 512,
      "max": [
        0.7500001192092896,
        0.8750001192092896
      ],
      "min": [
        0.2500000298023224,
        0.375
      ],
      "type": "VEC2"
    },
    {
      "bufferView": 0,
      "byteOffset": 779784,
      "componentType": 5125,
      "count": 2352,
      "type": "SCALAR"
    },
    {
      "bufferView": 2,
      "byteOffset": 1114320,
      "componentType": 5126,
      "count": 345,
      "max": [
        0.09059303253889084,
        0.11328452080488205,
        0.6377110481262207
      ],
      "min": [
        0.011605730280280113,
        -0.010211982764303684,
        0.5587285757064819
      ],
      "type": "VEC3"
    },
    {
      "bufferView": 2,
      "byteOffset": 1118460,
      "componentType": 5126,
      "count": 345,
      "max": [
        0.9977272152900696,
        0.9539706110954285,
        0.9973800182342529
      ],
      "min": [
        -0.99948650598526,
        -0.9940078258514404,
        -0.9104981422424316
      ],
      "type": "VEC3"
    },
    {
      "bufferView": 1,
      "byteOffset": 371440,
      "componentType": 5126,
      "count": 345,
      "max": [
        0.0,
        0.0
      ],
      "min": [
        0.0,
        0.0
      ],
      "type": "VEC2"
    },
    {
      "bufferView": 0,
      "byteOffset": 789192,
      "componentType": 5125,
      "count": 1620,
      "type": "SCALAR"
    },
    {
      "bufferView": 2,
      "byteOffset": 1122600,
      "componentType": 5126,
      "count": 897,
      "max": [
        0.07471132278442383,
        0.09066484868526459,
        0.6078819632530212
      ],
      "min": [
        0.03243818134069443,
        0.006666708737611771,
        0.5779733657836914
      ],
      "type": "VEC3"
    },
    {
      "bufferView": 2,
      "byteOffset": 1133364,
      "componentType": 5126,
      "count": 897,
      "max": [
        0.9999586343765259,
        0.12751731276512146,
        0.7794881463050842
      ],
      "min": [
        0.35084816813468933,
        -0.8592841029167175,
        -0.15459398925304413
      ],
      "type": "VEC3"
    },
    {
      "bufferView": 1,
      "byteOffset": 374200,
      "componentType": 5126,
      "count": 897,
      "max": [
        0.9658929109573364,
        1.0112152099609375
      ],
      "min": [
        0.14854979515075684,
        0.016366012394428253
      ],
      "type": "VEC2"
    },
    {
      "bufferView": 0,
      "byteOffset": 795672,
      "componentType": 5125,
      "count": 3024,
      "type": "SCALAR"
    },
    {
      "bufferView": 2,
      "byteOffset": 1144128,
      "componentType": 5126,
      "count": 18004,
      "max": [
        0.40842896699905396,
        0.16084641218185425,
        0.7085399031639099
      ],
      "min": [
        -0.38793322443962097,
        -0.3463716208934784,
        -0.015384649857878685
      ],
      "type": "VEC3"
    },
    {
      "bufferView": 2,
      "byteOffset": 1360176,
      "componentType": 5126,
      "count": 18004,
      "max": [
        0.9999858736991882,
        0.9997696280479431,
        0.9999508261680603
      ],
      "min": [
        -0.9999962449073792,
        -0.9998641610145569,
        -0.9999200105667114
      ],
      "type": "VEC3"
    },
    {
      "bufferView": 1,
      "byteOffset": 381376,
      "componentType": 5126,
      "count": 18004,
      "max": [
        0.9951432347297668,
        1.0112152099609375
      ],
      "min": [
        0.0,
        0.0
      ],
      "type": "VEC2"
    },
    {
      "bufferView": 0,
      "byteOffset": 807768,
      "componentType": 5125,
      "count": 71184,
      "type": "SCALAR"
    },
    {
      "bufferView": 2,
      "byteOffset": 1576224,
      "componentType": 5126,
      "count": 96,
      "max": [
        0.7506953477859497,
        0.7506953477859497,
        -0.0058344751596450806
      ],
      "min": [
        -0.7506953477859497,
        -0.7506953477859497,
        -0.07720659673213959
      ],
      "type": "VEC3"
    },
    {
      "bufferView": 2,
      "byteOffset": 1577376,
      "componentType": 5126,
      "count": 96,
      "max": [
        0.901584804058075,
        0.9015847444534302,
        1.0
      ],
      "min": [
        -0.901584804058075,
        -0.9015847444534302,
        0.43260160088539124
      ],
      "type": "VEC3"
    },
    {
      "bufferView": 1,
      "byteOffset": 525408,
      "componentType": 5126,
      "count": 96,
      "max": [
        0.0,
        0.0
      ],
      "min": [
        0.0,
        0.0
      ],
      "type": "VEC2"
    },
    {
      "bufferView": 0,
      "byteOffset": 1092504,
      "componentType": 5125,
      "count": 474,
      "type": "SCALAR"
    }
  ],
  "asset": {
    "extras": {
      "author": "sniffli (https://sketchfab.com/snifflihail)",
      "license": "CC-BY-4.0 (http://creativecommons.org/licenses/by/4.0/)",
      "source": "https://sketchfab.com/3d-models/mai-sakurajima-seishun-buta-yaro-5bbb1b2c587c44f38afd9e12960fc1fb",
      "title": "Mai Sakurajima - Seishun Buta Yarō"
    },
    "generator": "Sketchfab-15.25.0",
    "version": "2.0"
  },
  "bufferViews": [
    {
      "buffer": 0,
      "byteLength": 1094400,
      "name": "floatBufferViews",
      "target": 34963
    },
    {
      "buffer": 0,
      "byteLength": 526176,
      "byteOffset": 1094400,
      "byteStride": 8,
      "name": "floatBufferViews",
      "target": 34962
    },
    {
      "buffer": 0,
      "byteLength": 1578528,
      "byteOffset": 1620576,
      "byteStride": 12,
      "name": "floatBufferViews",
      "target": 34962
    }
  ],
  "buffers": [
    {
      "byteLength": 3199104,
      "uri": "scene.bin"
    }
  ],
  "extensionsUsed": [
    "KHR_materials_specular"
  ],
  "images": [
    {
      "uri": "textures/hair_baseColor.png"
    },
    {
      "uri": "textures/bunny_baseColor.png"
    },
    {
      "uri": "textures/skin_emissive.png"
    },
    {
      "uri": "textures/eye.001_emissive.jpeg"
    }
  ],
  "materials": [
    {
      "doubleSided": true,
      "emissiveFactor": [
        1.0,
        1.0,
        1.0
      ],
      "emissiveTexture": {
        "index": 0
      },
      "extensions": {
        "KHR_materials_specular": {
          "specularColorFactor": [
            1.0,
            1.0,
            1.0
          ],
          "specularFactor": 0.0
        }
      },
      "name": "hair",
      "pbrMetallicRoughness": {
        "baseColorFactor": [
          0.0,
          0.0,
          0.0,
          1.0
        ],
        "baseColorTexture": {
          "index": 0
        },
        "metallicFactor": 0.0
      }
    },
    {
      "extensions": {
        "KHR_materials_specular": {
          "specularColorFactor": [
            1.0,
            1.0,
            1.0
          ],
          "specularFactor": 0.0
        }
      },
      "name": "Outline",
      "pbrMetallicRoughness": {
        "baseColorFactor": [
          0.0,
          0.0,
          0.0,
          1.0
        ],
        "metallicFactor": 0.0
      }
    },
    {
      "doubleSided": true,
      "emissiveFactor": [
        0.8227857543962833,
        0.6583748172794486,
        0.6375968739940326
      ],
      "extensions": {
        "KHR_materials_specular": {
          "specularColorFactor": [
            1.0,
            1.0,
            1.0
          ],
          "specularFactor": 0.0
        }
      },
      "name": "pink",
      "pbrMetallicRoughness": {
        "baseColorFactor": [
          0.0,
          0.0,
          0.0,
          1.0
        ],
        "metallicFactor": 0.0
      }
    },
    {
      "doubleSided": true,
      "emissiveFactor": [
        0.16202937563911096,
        0.12213877222960183,
        0.09530746663096464
      ],
      "extensions": {
        "KHR_materials_specular": {
          "specularColorFactor": [
            1.0,
            1.0,
            1.0
          ],
          "specularFactor": 0.0
        }
      },
      "name": "medias",
      "pbrMetallicRoughness": {
        "baseColorFactor": [
          0.0,
          0.0,
          0.0,
          1.0
        ],
        "metallicFactor": 0.0
      }
    },
    {
      "doubleSided": true,
      "emissiveFactor": [
        1.0,
        1.0,
        1.0
      ],
      "extensions": {
        "KHR_materials_specular": {
          "specularColorFactor": [
            1.0,
            1.0,
            1.0
          ],
          "specularFactor": 0.0
        }
      },
      "name": "material",
      "pbrMetallicRoughness": {
        "baseColorFactor": [
          0.8,
          0.8,
          0.8,
          1.0
        ],
        "metallicFactor": 0.0
      }
    },
    {
      "doubleSided": true,
      "emissiveFactor": [
        1.0,
        1.0,
        1.0
      ],
      "emissiveTexture": {
        "index": 1
      },
      "extensions": {
        "KHR_materials_specular": {
          "specularColorFactor": [
            1.0,
            1.0,
            1.0
          ],
          "specularFactor": 0.0
        }
      },
      "name": "bunny",
      "pbrMetallicRoughness": {
        "baseColorFactor": [
          0.0,
          0.0,
          0.0,
          1.0
        ],
        "baseColorTexture": {
          "index": 1
        },
        "metallicFactor": 0.0,
        "roughnessFactor": 0.0
      }
    },
    {
      "doubleSided": true,
      "emissiveFactor": [
        0.7454042095403872,
        0.5394794890121073,
        0.0116122451797439
      ],
      "extensions": {
        "KHR_materials_specular": {
          "specularColorFactor": [
            1.0,
            1.0,
            1.0
          ],
          "specularFactor": 0.0
        }
      },
      "name": "Material.001",
      "pbrMetallicRoughness": {
        "baseColorFactor": [
          0.0,
          0.0,
          0.0,
          1.0
        ],
        "metallicFactor": 0.0
      }
    },
    {
      "doubleSided": true,
      "emissiveFactor": [
        1.0,
        1.0,
        1.0
      ],
      "emissiveTexture": {
        "index": 2
      },
      "extensions": {
        "KHR_materials_specular": {
          "specularColorFactor": [
            1.0,
            1.0,
            1.0
          ],
          "specularFactor": 0.0
        }
      },
      "name": "skin",
      "pbrMetallicRoughness": {
        "baseColorFactor": [
          0.0,
          0.0,
          0.0,
          1.0
        ],
        "metallicFactor": 0.0
      }
    },
    {
      "doubleSided": true,
      "extensions": {
        "KHR_materials_specular": {
          "specularColorFactor": [
            1.0,
            1.0,
            1.0
          ],
          "specularFactor": 0.0
        }
      },
      "name": "black",
      "pbrMetallicRoughness": {
        "baseColorFactor": [
          0.0,
          0.0,
          0.0,
          1.0
        ],
        "metallicFactor": 0.0
      }
    },
    {
      "doubleSided": true,
      "emissiveFactor": [
        1.0,
        1.0,
        1.0
      ],
      "emissiveTexture": {
        "index": 3
      },
      "extensions": {
        "KHR_materials_specular": {
          "specularColorFactor": [
            1.0,
            1.0,
            1.0
          ],
          "specularFactor": 0.0
        }
      },
      "name": "eye.001",
      "pbrMetallicRoughness": {
        "baseColorFactor": [
          0.0,
          0.0,
          0.0,
          1.0
        ],
        "metallicFactor": 0.0
      }
    },
    {
      "doubleSided": true,
      "extensions": {
        "KHR_materials_specular": {
          "specularColorFactor": [
            1.0,
            1.0,
            1.0
          ],
          "specularFactor": 0.0
        }
      },
      "name": "base",
      "pbrMetallicRoughness": {
        "baseColorFactor": [
          0.138432,
          0.138432,
          0.162029,
          1.0
        ],
        "metallicFactor": 0.0
      }
    }
  ],
  "meshes": [
    {
      "name": "front_hair_0",
      "primitives": [
        {
          "attributes": {
            "NORMAL": 1,
            "POSITION": 0,
            "TEXCOORD_0": 2
          },
          "indices": 3,
          "material": 0,
          "mode": 4
        }
      ]
    },
    {
      "name": "front_Outline_0",
      "primitives": [
        {
          "attributes": {
            "NORMAL": 5,
            "POSITION": 4,
            "TEXCOORD_0": 6
          },
          "indices": 7,
          "material": 1,
          "mode": 4
        }
      ]
    },
    {
      "name": "clip_pink_0",
      "primitives": [
        {
          "attributes": {
            "NORMAL": 9,
            "POSITION": 8,
            "TEXCOORD_0": 10
          },
          "indices": 11,
          "material": 2,
          "mode": 4
        }
      ]
    },
    {
      "name": "clip_Outline_0",
      "primitives": [
        {
          "attributes": {
            "NORMAL": 13,
            "POSITION": 12,
            "TEXCOORD_0": 14
          },
          "indices": 15,
          "material": 1,
          "mode": 4
        }
      ]
    },
    {
      "name": "back1fst_hair_0",
      "primitives": [
        {
          "attributes": {
            "NORMAL": 17,
            "POSITION": 16,
            "TEXCOORD_0": 18
          },
          "indices": 19,
          "material": 0,
          "mode": 4
        }
      ]
    },
    {
      "name": "back1fst_Outline_0",
      "primitives": [
        {
          "attributes": {
            "NORMAL": 21,
            "POSITION": 20,
            "TEXCOORD_0": 22
          },
          "indices": 23,
          "material": 1,
          "mode": 4
        }
      ]
    },
    {
      "name": "bactail_hair_0",
      "primitives": [
        {
          "attributes": {
            "NORMAL": 25,
            "POSITION": 24,
            "TEXCOORD_0": 26
          },
          "indices": 27,
          "material": 0,
          "mode": 4
        }
      ]
    },
    {
      "name": "bactail_Outline_0",
      "primitives": [
        {
          "attributes": {
            "NORMAL": 29,
            "POSITION": 28,
            "TEXCOORD_0": 30
          },
          "indices": 31,
          "material": 1,
          "mode": 4
        }
      ]
    },
    {
      "name": "clipbunni_pink_0",
      "primitives": [
        {
          "attributes": {
            "NORMAL": 33,
            "POSITION": 32,
            "TEXCOORD_0": 34
          },
          "indices": 35,
          "material": 2,
          "mode": 4
        }
      ]
    },
    {
      "name": "clipbunni_Outline_0",
      "primitives": [
        {
          "attributes": {
            "NORMAL": 37,
            "POSITION": 36,
            "TEXCOORD_0": 38
          },
          "indices": 39,
          "material": 1,
          "mode": 4
        }
      ]
    },
    {
      "name": "haircover_hair_0",
      "primitives": [
        {
          "attributes": {
            "NORMAL": 41,
            "POSITION": 40,
            "TEXCOORD_0": 42
          },
          "indices": 43,
          "material": 0,
          "mode": 4
        }
      ]
    },
    {
      "name": "mallas_medias_0",
      "primitives": [
        {
          "attributes": {
            "NORMAL": 45,
            "POSITION": 44,
            "TEXCOORD_0": 46
          },
          "indices": 47,
          "material": 3,
          "mode": 4
        }
      ]
    },
    {
      "name": "mallas_Outline_0",
      "primitives": [
        {
          "attributes": {
            "NORMAL": 49,
            "POSITION": 48,
            "TEXCOORD_0": 50
          },
          "indices": 51,
          "material": 1,
          "mode": 4
        }
      ]
    },
    {
      "name": "cuello_eye_0",
      "primitives": [
        {
          "attributes": {
            "NORMAL": 53,
            "POSITION": 52,
            "TEXCOORD_0": 54
          },
          "indices": 55,
          "material": 4,
          "mode": 4
        }
      ]
    },
    {
      "name": "cuello_Outline_0",
      "primitives": [
        {
          "attributes": {
            "NORMAL": 57,
            "POSITION": 56,
            "TEXCOORD_0": 58
          },
          "indices": 59,
          "material": 1,
          "mode": 4
        }
      ]
    },
    {
      "name": "bunny_bunny_0",
      "primitives": [
        {
          "attributes": {
            "NORMAL": 61,
            "POSITION": 60,
            "TEXCOORD_0": 62
          },
          "indices": 63,
          "material": 5,
          "mode": 4
        }
      ]
    },
    {
      "name": "bunny_Outline_0",
      "primitives": [
        {
          "attributes": {
            "NORMAL": 65,
            "POSITION": 64,
            "TEXCOORD_0": 66
          },
          "indices": 67,
          "material": 1,
          "mode": 4
        }
      ]
    },
    {
      "name": "Circle_bunny_0",
      "primitives": [
        {
          "attributes": {
            "NORMAL": 69,
            "POSITION": 68,
            "TEXCOORD_0": 70
          },
          "indices": 71,
          "material": 5,
          "mode": 4
        }
      ]
    },
    {
      "name": "Circle_Outline_0",
      "primitives": [
        {
          "attributes": {
            "NORMAL": 73,
            "POSITION": 72,
            "TEXCOORD_0": 74
          },
          "indices": 75,
          "material": 1,
          "mode": 4
        }
      ]
    },
    {
      "name": "monio_bunny_0",
      "primitives": [
        {
          "attributes": {
            "NORMAL": 77,
            "POSITION": 76,
            "TEXCOORD_0": 78
          },
          "indices": 79,
          "material": 5,
          "mode": 4
        }
      ]
    },
    {
      "name": "monio_Outline_0",
      "primitives": [
        {
          "attributes": {
            "NORMAL": 81,
            "POSITION": 80,
            "TEXCOORD_0": 82
          },
          "indices": 83,
          "material": 1,
          "mode": 4
        }
      ]
    },
    {
      "name": "mangas_eye_0",
      "primitives": [
        {
          "attributes": {
            "NORMAL": 85,
            "POSITION": 84,
            "TEXCOORD_0": 86
          },
          "indices": 87,
          "material": 4,
          "mode": 4
        }
      ]
    },
    {
      "name": "mangas_Material.001_0",
      "primitives": [
        {
          "attributes": {
            "NORMAL": 89,
            "POSITION": 88,
            "TEXCOORD_0": 90
          },
          "indices": 91,
          "material": 6,
          "mode": 4
        }
      ]
    },
    {
      "name": "mangas_Outline_0",
      "primitives": [
        {
          "attributes": {
            "NORMAL": 93,
            "POSITION": 92,
            "TEXCOORD_0": 94
          },
          "indices": 95,
          "material": 1,
          "mode": 4
        }
      ]
    },
    {
      "name": "bunnytail_eye_0",
      "primitives": [
        {
          "attributes": {
            "NORMAL": 97,
            "POSITION": 96,
            "TEXCOORD_0": 98
          },
          "indices": 99,
          "material": 4,
          "mode": 4
        }
      ]
    },
    {
      "name": "bunnytail_Outline_0",
      "primitives": [
        {
          "attributes": {
            "NORMAL": 101,
            "POSITION": 100,
            "TEXCOORD_0": 102
          },
          "indices": 103,
          "material": 1,
          "mode": 4
        }
      ]
    },
    {
      "name": "shoes_bunny_0",
      "primitives": [
        {
          "attributes": {
            "NORMAL": 105,
            "POSITION": 104,
            "TEXCOORD_0": 106
          },
          "indices": 107,
          "material": 5,
          "mode": 4
        }
      ]
    },
    {
      "name": "shoes_Outline_0",
      "primitives": [
        {
          "attributes": {
            "NORMAL": 109,
            "POSITION": 108,
            "TEXCOORD_0": 110
          },
          "indices": 111,
          "material": 1,
          "mode": 4
        }
      ]
    },
    {
      "name": "body_skin_0",
      "primitives": [
        {
          "attributes": {
            "NORMAL": 113,
            "POSITION": 112,
            "TEXCOORD_0": 114
          },
          "indices": 115,
          "material": 7,
          "mode": 4
        }
      ]
    },
    {
      "name": "body_eye_0",
      "primitives": [
        {
          "attributes": {
            "NORMAL": 117,
            "POSITION": 116,
            "TEXCOORD_0": 118
          },
          "indices": 119,
          "material": 4,
          "mode": 4
        }
      ]
    },
    {
      "name": "body_black_0",
      "primitives": [
        {
          "attributes": {
            "NORMAL": 121,
            "POSITION": 120,
            "TEXCOORD_0": 122
          },
          "indices": 123,
          "material": 8,
          "mode": 4
        }
      ]
    },
    {
      "name": "body_eye.001_0",
      "primitives": [
        {
          "attributes": {
            "NORMAL": 125,
            "POSITION": 124,
            "TEXCOORD_0": 126
          },
          "indices": 127,
          "material": 9,
          "mode": 4
        }
      ]
    },
    {
      "name": "body_Outline_0",
      "primitives": [
        {
          "attributes": {
            "NORMAL": 129,
            "POSITION": 128,
            "TEXCOORD_0": 130
          },
          "indices": 131,
          "material": 1,
          "mode": 4
        }
      ]
    },
    {
      "name": "base_base_0",
      "primitives": [
        {
          "attributes": {
            "NORMAL": 133,
            "POSITION": 132,
            "TEXCOORD_0": 134
          },
          "indices": 135,
          "material": 10,
          "mode": 4
        }
      ]
    }
  ],
  "nodes": [
    {
      "children": [
        1
      ],
      "matrix": [
        1.0,
        0.0,
        0.0,
        0.0,
        0.0,
        2.220446049250313e-16,
        -1.0,
        0.0,
        0.0,
        1.0,
        2.220446049250313e-16,
        0.0,
        0.0,
        0.0,
        0.0,
        1.0
      ],
      "name": "Sketchfab_model"
    },
    {
      "children": [
        2
      ],
      "name": "2aea633d16124372950a73f18fe2a096.fbx"
    },
    {
      "children": [
        3,
        9,
        12,
        18,
        20,
        23,
        26,
        29,
        32,
        35,
        39,
        42,
        45,
        51
      ],
      "name": "RootNode"
    },
    {
      "children": [
        4,
        5,
        6
      ],
      "matrix": [
        0.4386015848254603,
        0.8982460430672287,
        0.027976702855434965,
        0.0,
        -0.898218661426114,
        0.43916228430734516,
        -0.01843161164507196,
        0.0,
        -0.028842438399204567,
        -0.01704506454343875,
        0.9994387514702896,
        0.0,
        0.05838390812277794,
        0.08628392964601517,
        -0.6987487077713013,
        1.0
      ],
      "name": "front"
    },
    {
      "mesh": 0,
      "name": "front_hair_0"
    },
    {
      "mesh": 1,
      "name": "front_Outline_0"
    },
    {
      "children": [
        7,
        8
      ],
      "matrix": [
        0.4386015515820185,
        -0.8982185459533824,
        -0.028842403448267634,
        0.0,
        0.8982458725137535,
        0.4391622247001885,
        -0.017045095498420443,
        0.0,
        0.027976719960896727,
        -0.018431567814133118,
        0.9994385133811773,
        0.0,
        -0.08356281369924545,
        0.0016698274994269013,
        0.7015110850334167,
        1.0
      ],
      "name": "clip"
    },
    {
      "mesh": 2,
      "name": "clip_pink_0"
    },
    {
      "mesh": 3,
      "name": "clip_Outline_0"
    },
    {
      "children": [
        10,
        11
      ],
      "matrix": [
        0.4386015848254603,
        0.8982460430672287,
        0.027976702855434965,
        0.0,
        -0.898218661426114,
        0.43916228430734516,
        -0.01843161164507196,
        0.0,
        -0.028842438399204567,
        -0.01704506454343875,
        0.9994387514702896,
        0.0,
        0.05838390812277794,
        0.08628392964601517,
        -0.6987487077713013,
        1.0
      ],
      "name": "back1fst"
    },
    {
      "mesh": 4,
      "name": "back1fst_hair_0"
    },
    {
      "mesh": 5,
      "name": "back1fst_Outline_0"
    },
    {
      "children": [
        13,
        14,
        15
      ],
      "matrix": [
        0.4386015848254603,
        0.8982460430672287,
        0.027976702855434965,
        0.0,
        -0.898218661426114,
        0.43916228430734516,
        -0.01843161164507196,
        0.0,
        -0.028842438399204567,
        -0.01704506454343875,
        0.9994387514702896,
        0.0,
        0.05838390812277794,
        0.08628392964601517,
        -0.6987487077713013,
        1.0
      ],
      "name": "bactail"
    },
    {
      "mesh": 6,
      "name": "bactail_hair_0"
    },
    {
      "mesh": 7,
      "name": "bactail_Outline_0"
    },
    {
      "children": [
        16,
        17
      ],
      "matrix": [
        0.4386015515820185,
        -0.8982185459533824,
        -0.028842403448267634,
        0.0,
        0.8982458725137535,
        0.4391622247001885,
        -0.017045095498420443,
        0.0,
        0.027976719960896727,
        -0.018431567814133118,
        0.9994385133811773,
        0.0,
        -0.08356281369924545,
        0.0016698274994269013,
        0.7015110850334167,
        1.0
      ],
      "name": "clipbunni"
    },
    {
      "mesh": 8,
      "name": "clipbunni_pink_0"
    },
    {
      "mesh": 9,
      "name": "clipbunni_Outline_0"
    },
    {
      "children": [
        19
      ],
      "name": "haircover"
    },
    {
      "mesh": 10,
      "name": "haircover_hair_0"
    },
    {
      "children": [
        21,
        22
      ],
      "name": "mallas"
    },
    {
      "mesh": 11,
      "name": "mallas_medias_0"
    },
    {
      "mesh": 12,
      "name": "mallas_Outline_0"
    },
    {
      "children": [
        24,
        25
      ],
      "name": "cuello"
    },
    {
      "mesh": 13,
      "name": "cuello_eye_0"
    },
    {
      "mesh": 14,
      "name": "cuello_Outline_0"
    },
    {
      "children": [
        27,
        28
      ],
      "name": "bunny"
    },
    {
      "mesh": 15,
      "name": "bunny_bunny_0"
    },
    {
      "mesh": 16,
      "name": "bunny_Outline_0"
    },
    {
      "children": [
        30,
        31
      ],
      "matrix": [
        0.4386015841166514,
        0.8982460416156045,
        0.027976760574832903,
        0.0,
        -0.8982187695931192,
        0.4391623366952052,
        -0.018431559826112144,
        0.0,
        -0.028842415201812344,
        -0.017045140123254077,
        0.9994387508507453,
        0.0,
        0.05838398262858391,
        0.08628391474485397,
        -0.698748767375946,
        1.0
      ],
      "name": "Circle"
    },
    {
      "mesh": 17,
      "name": "Circle_bunny_0"
    },
    {
      "mesh": 18,
      "name": "Circle_Outline_0"
    },
    {
      "children": [
        33,
        34
      ],
      "name": "monio"
    },
    {
      "mesh": 19,
      "name": "monio_bunny_0"
    },
    {
      "mesh": 20,
      "name": "monio_Outline_0"
    },
    {
      "children": [
        36,
        37,
        38
      ],
      "name": "mangas"
    },
    {
      "mesh": 21,
      "name": "mangas_eye_0"
    },
    {
      "mesh": 22,
      "name": "mangas_Material.001_0"
    },
    {
      "mesh": 23,
      "name": "mangas_Outline_0"
    },
    {
      "children": [
        40,
        41
      ],
      "name": "bunnytail"
    },
    {
      "mesh": 24,
      "name": "bunnytail_eye_0"
    },
    {
      "mesh": 25,
      "name": "bunnytail_Outline_0"
    },
    {
      "children": [
        43,
        44
      ],
      "name": "shoes"
    },
    {
      "mesh": 26,
      "name": "shoes_bunny_0"
    },
    {
      "mesh": 27,
      "name": "shoes_Outline_0"
    },
    {
      "children": [
        46,
        47,
        48,
        49,
        50
      ],
      "name": "body"
    },
    {
      "mesh": 28,
      "name": "body_skin_0"
    },
    {
      "mesh": 29,
      "name": "body_eye_0"
    },
    {
      "mesh": 30,
      "name": "body_black_0"
    },
    {
      "mesh": 31,
      "name": "body_eye.001_0"
    },
    {
      "mesh": 32,
      "name": "body_Outline_0"
    },
    {
      "children": [
        52
      ],
      "name": "base"
    },
    {
      "mesh": 33,
      "name": "base_base_0"
    }
  ],
  "samplers": [
    {
      "magFilter": 9729,
      "minFilter": 9987,
      "wrapS": 10497,
      "wrapT": 10497
    }
  ],
  "scene": 0,
  "scenes": [
    {
      "name": "Sketchfab_Scene",
      "nodes": [
        0
      ]
    }
  ],
  "textures": [
    {
      "sampler": 0,
      "source": 0
    },
    {
      "sampler": 0,
      "source": 1
    },
    {
      "sampler": 0,
      "source": 2
    },
    {
      "sampler": 0,
      "source": 3
    }
  ]
}
